ffmpeg started on 2025-04-30 at 18:21:49
Report written to "D:\Convert\FFMetrics\reports\psnr_report-6.txt"
Log level: 32
Command line:
ffmpeg -hide_banner -nostdin -i "G:\\\xc0\xed\xe8\xec\xe5\\\xce\xed\xe3\xee\xe8\xed\xe3\xe8\\!_35_\xcb\xe5\xf2\xee_2024\\JamClub\\\xcc\xe5\xf7 \xe8 \xe6\xe5\xe7\xeb \xc2\xe8\xf1\xf2\xee\xf0\xe8\xe8\\JamClub_Tsue_to_Tsurugi_no_Wistoria_11_1080p_HEVC.mkv" -i "G:\\\xc0\xed\xe8\xec\xe5\\\xce\xed\xe3\xee\xe8\xed\xe3\xe8\\!_35_\xcb\xe5\xf2\xee_2024\\JamClub\\\xcc\xe5\xf7 \xe8 \xe6\xe5\xe7\xeb \xc2\xe8\xf1\xf2\xee\xf0\xe8\xe8\\JamClub_Tsue_to_Tsurugi_no_Wistoria_11_1080p.mp4" -lavfi "[0:v]settb=AVTB,setpts=PTS-STARTPTS,format=pix_fmts=yuv420p10,fps=24000/1001,scale=1920:1080:flags=bicubic[main];[1:v]settb=AVTB,setpts=PTS-STARTPTS,format=pix_fmts=yuv420p,fps=24000/1001,scale=1920:1080:flags=bicubic[ref];[main][ref]psnr=eof_action=endall:stats_file='D\\:/Convert/FFMetrics/logs/psnr_logfile-6.txt'" -f null -
Input #0, matroska,webm, from 'G:\Аниме\Онгоинги\!_35_Лето_2024\JamClub\Меч и жезл Вистории\JamClub_Tsue_to_Tsurugi_no_Wistoria_11_1080p_HEVC.mkv':
  Metadata:
    COMPATIBLE_BRANDS: isomiso2avc1mp41
    MAJOR_BRAND     : isom
    MINOR_VERSION   : 512
    ENCODER         : Lavf61.7.100
  Duration: 00:24:08.26, start: -0.001000, bitrate: 1728 kb/s
  Stream #0:0: Video: hevc (Main 10), yuv420p10le(tv, bt709, progressive), 1920x1080 [SAR 1:1 DAR 16:9], 23.98 fps, 23.98 tbr, 1k tbn (default)
      Metadata:
        HANDLER_NAME    : VideoHandler
        VENDOR_ID       : [0][0][0][0]
        ENCODER         : Lavc61.19.100 libx265
        BPS             : 1530993
        DURATION        : 00:24:08.113708333
        NUMBER_OF_FRAMES: 34720
        NUMBER_OF_BYTES : 277131451
        _STATISTICS_WRITING_APP: mkvpropedit v66.0.0 ('Josie') 64-bit
        _STATISTICS_WRITING_DATE_UTC: 2025-04-29 13:47:20
        _STATISTICS_TAGS: BPS DURATION NUMBER_OF_FRAMES NUMBER_OF_BYTES
  Stream #0:1(eng): Audio: aac (LC), 48000 Hz, stereo, fltp (default)
      Metadata:
        HANDLER_NAME    : SoundHandler
        VENDOR_ID       : [0][0][0][0]
        ENCODER         : Lavc61.19.100 aac
        BPS             : 193720
        DURATION        : 00:24:08.216000000
        NUMBER_OF_FRAMES: 67886
        NUMBER_OF_BYTES : 35068666
        _STATISTICS_WRITING_APP: mkvpropedit v66.0.0 ('Josie') 64-bit
        _STATISTICS_WRITING_DATE_UTC: 2025-04-29 13:47:20
        _STATISTICS_TAGS: BPS DURATION NUMBER_OF_FRAMES NUMBER_OF_BYTES
Input #1, mov,mp4,m4a,3gp,3g2,mj2, from 'G:\Аниме\Онгоинги\!_35_Лето_2024\JamClub\Меч и жезл Вистории\JamClub_Tsue_to_Tsurugi_no_Wistoria_11_1080p.mp4':
  Metadata:
    major_brand     : isom
    minor_version   : 512
    compatible_brands: isomiso2avc1mp41
    encoder         : Lavf60.16.100
  Duration: 00:24:08.24, start: 0.000000, bitrate: 5213 kb/s
  Stream #1:0[0x1](und): Video: h264 (High) (avc1 / 0x31637661), yuv420p(progressive), 1920x1080 [SAR 1:1 DAR 16:9], 5016 kb/s, 23.98 fps, 23.98 tbr, 90k tbn (default)
      Metadata:
        handler_name    : VideoHandler
        vendor_id       : [0][0][0][0]
  Stream #1:1[0x2](eng): Audio: aac (LC) (mp4a / 0x6134706D), 48000 Hz, stereo, fltp, 191 kb/s (default)
      Metadata:
        handler_name    : SoundHandler
        vendor_id       : [0][0][0][0]
Stream mapping:
  Stream #0:0 (hevc) -> settb:default
  Stream #1:0 (h264) -> settb:default
  psnr:default -> Stream #0:0 (wrapped_avframe)
  Stream #0:1 -> #0:1 (aac (native) -> pcm_s16le (native))
Output #0, null, to 'pipe:':
  Metadata:
    COMPATIBLE_BRANDS: isomiso2avc1mp41
    MAJOR_BRAND     : isom
    MINOR_VERSION   : 512
    encoder         : Lavf61.7.100
  Stream #0:0: Video: wrapped_avframe, yuv420p10le(tv, bt709, progressive), 1920x1080 [SAR 1:1 DAR 16:9], q=2-31, 200 kb/s, 23.98 fps, 23.98 tbn
      Metadata:
        encoder         : Lavc61.19.100 wrapped_avframe
  Stream #0:1(eng): Audio: pcm_s16le, 48000 Hz, stereo, s16, 1536 kb/s (default)
      Metadata:
        HANDLER_NAME    : SoundHandler
        VENDOR_ID       : [0][0][0][0]
        _STATISTICS_TAGS: BPS DURATION NUMBER_OF_FRAMES NUMBER_OF_BYTES
        BPS             : 193720
        DURATION        : 00:24:08.216000000
        NUMBER_OF_FRAMES: 67886
        NUMBER_OF_BYTES : 35068666
        _STATISTICS_WRITING_APP: mkvpropedit v66.0.0 ('Josie') 64-bit
        _STATISTICS_WRITING_DATE_UTC: 2025-04-29 13:47:20
        encoder         : Lavc61.19.100 pcm_s16le
frame=  112 fps=0.0 q=-0.0 size=N/A time=00:00:04.67 bitrate=N/A speed=8.87x    frame=  270 fps=261 q=-0.0 size=N/A time=00:00:11.26 bitrate=N/A speed=10.9x    frame=  467 fps=302 q=-0.0 size=N/A time=00:00:19.47 bitrate=N/A speed=12.6x    frame=  704 fps=340 q=-0.0 size=N/A time=00:00:29.36 bitrate=N/A speed=14.2x    frame=  931 fps=361 q=-0.0 size=N/A time=00:00:38.83 bitrate=N/A speed=15.1x    frame= 1133 fps=365 q=-0.0 size=N/A time=00:00:47.25 bitrate=N/A speed=15.2x    frame= 1316 fps=364 q=-0.0 size=N/A time=00:00:54.88 bitrate=N/A speed=15.2x    frame= 1510 fps=365 q=-0.0 size=N/A time=00:01:02.97 bitrate=N/A speed=15.2x    frame= 1684 fps=363 q=-0.0 size=N/A time=00:01:10.23 bitrate=N/A speed=15.1x    frame= 1852 fps=358 q=-0.0 size=N/A time=00:01:17.24 bitrate=N/A speed=  15x    frame= 2041 fps=360 q=-0.0 size=N/A time=00:01:25.12 bitrate=N/A speed=  15x    frame= 2224 fps=359 q=-0.0 size=N/A time=00:01:32.75 bitrate=N/A speed=  15x    frame= 2444 fps=365 q=-0.0 size=N/A time=00:01:41.93 bitrate=N/A speed=15.2x    frame= 2672 fps=370 q=-0.0 size=N/A time=00:01:51.44 bitrate=N/A speed=15.4x    frame= 2937 fps=380 q=-0.0 size=N/A time=00:02:02.49 bitrate=N/A speed=15.8x    frame= 3154 fps=382 q=-0.0 size=N/A time=00:02:11.54 bitrate=N/A speed=15.9x    frame= 3407 fps=389 q=-0.0 size=N/A time=00:02:22.10 bitrate=N/A speed=16.2x    frame= 3643 fps=392 q=-0.0 size=N/A time=00:02:31.94 bitrate=N/A speed=16.4x    frame= 3852 fps=393 q=-0.0 size=N/A time=00:02:40.66 bitrate=N/A speed=16.4x    frame= 4064 fps=394 q=-0.0 size=N/A time=00:02:49.50 bitrate=N/A speed=16.4x    frame= 4281 fps=395 q=-0.0 size=N/A time=00:02:58.55 bitrate=N/A speed=16.5x    frame= 4499 fps=396 q=-0.0 size=N/A time=00:03:07.64 bitrate=N/A speed=16.5x    frame= 4704 fps=397 q=-0.0 size=N/A time=00:03:16.19 bitrate=N/A speed=16.5x    frame= 4927 fps=398 q=-0.0 size=N/A time=00:03:25.49 bitrate=N/A speed=16.6x    frame= 5181 fps=402 q=-0.0 size=N/A time=00:03:36.09 bitrate=N/A speed=16.8x    frame= 5456 fps=407 q=-0.0 size=N/A time=00:03:47.56 bitrate=N/A speed=  17x    frame= 5690 fps=408 q=-0.0 size=N/A time=00:03:57.32 bitrate=N/A speed=  17x    frame= 5959 fps=413 q=-0.0 size=N/A time=00:04:08.53 bitrate=N/A speed=17.2x    frame= 6234 fps=417 q=-0.0 size=N/A time=00:04:20.00 bitrate=N/A speed=17.4x    frame= 6502 fps=420 q=-0.0 size=N/A time=00:04:31.18 bitrate=N/A speed=17.5x    frame= 6767 fps=423 q=-0.0 size=N/A time=00:04:42.24 bitrate=N/A speed=17.7x    frame= 7025 fps=426 q=-0.0 size=N/A time=00:04:53.00 bitrate=N/A speed=17.8x    frame= 7304 fps=429 q=-0.0 size=N/A time=00:05:04.63 bitrate=N/A speed=17.9x    frame= 7576 fps=432 q=-0.0 size=N/A time=00:05:15.98 bitrate=N/A speed=  18x    frame= 7853 fps=435 q=-0.0 size=N/A time=00:05:27.53 bitrate=N/A speed=18.2x    frame= 8138 fps=438 q=-0.0 size=N/A time=00:05:39.42 bitrate=N/A speed=18.3x    frame= 8433 fps=442 q=-0.0 size=N/A time=00:05:51.72 bitrate=N/A speed=18.4x    frame= 8721 fps=445 q=-0.0 size=N/A time=00:06:03.73 bitrate=N/A speed=18.6x    frame= 8985 fps=447 q=-0.0 size=N/A time=00:06:14.74 bitrate=N/A speed=18.6x    frame= 9262 fps=449 q=-0.0 size=N/A time=00:06:26.30 bitrate=N/A speed=18.7x    frame= 9544 fps=451 q=-0.0 size=N/A time=00:06:38.06 bitrate=N/A speed=18.8x    frame= 9829 fps=454 q=-0.0 size=N/A time=00:06:49.95 bitrate=N/A speed=18.9x    frame=10086 fps=455 q=-0.0 size=N/A time=00:07:00.67 bitrate=N/A speed=  19x    frame=10322 fps=455 q=-0.0 size=N/A time=00:07:10.51 bitrate=N/A speed=  19x    frame=10525 fps=454 q=-0.0 size=N/A time=00:07:18.98 bitrate=N/A speed=18.9x    frame=10744 fps=453 q=-0.0 size=N/A time=00:07:28.11 bitrate=N/A speed=18.9x    frame=10971 fps=453 q=-0.0 size=N/A time=00:07:37.58 bitrate=N/A speed=18.9x    frame=11222 fps=453 q=-0.0 size=N/A time=00:07:48.05 bitrate=N/A speed=18.9x    frame=11505 fps=455 q=-0.0 size=N/A time=00:07:59.85 bitrate=N/A speed=  19x    frame=11734 fps=455 q=-0.0 size=N/A time=00:08:09.40 bitrate=N/A speed=  19x    frame=12000 fps=456 q=-0.0 size=N/A time=00:08:20.50 bitrate=N/A speed=  19x    frame=12223 fps=455 q=-0.0 size=N/A time=00:08:29.80 bitrate=N/A speed=  19x    frame=12471 fps=456 q=-0.0 size=N/A time=00:08:40.14 bitrate=N/A speed=  19x    frame=12685 fps=455 q=-0.0 size=N/A time=00:08:49.07 bitrate=N/A speed=  19x    frame=12927 fps=455 q=-0.0 size=N/A time=00:08:59.16 bitrate=N/A speed=  19x    frame=13117 fps=454 q=-0.0 size=N/A time=00:09:07.08 bitrate=N/A speed=18.9x    frame=13337 fps=453 q=-0.0 size=N/A time=00:09:16.26 bitrate=N/A speed=18.9x    frame=13540 fps=453 q=-0.0 size=N/A time=00:09:24.73 bitrate=N/A speed=18.9x    frame=13761 fps=452 q=-0.0 size=N/A time=00:09:33.94 bitrate=N/A speed=18.9x    frame=13975 fps=451 q=-0.0 size=N/A time=00:09:42.87 bitrate=N/A speed=18.8x    frame=14210 fps=452 q=-0.0 size=N/A time=00:09:52.67 bitrate=N/A speed=18.8x    frame=14504 fps=453 q=-0.0 size=N/A time=00:10:04.93 bitrate=N/A speed=18.9x    frame=14733 fps=453 q=-0.0 size=N/A time=00:10:14.48 bitrate=N/A speed=18.9x    frame=14924 fps=452 q=-0.0 size=N/A time=00:10:22.45 bitrate=N/A speed=18.8x    frame=15105 fps=450 q=-0.0 size=N/A time=00:10:30.00 bitrate=N/A speed=18.8x    frame=15285 fps=449 q=-0.0 size=N/A time=00:10:37.51 bitrate=N/A speed=18.7x    frame=15494 fps=448 q=-0.0 size=N/A time=00:10:46.22 bitrate=N/A speed=18.7x    frame=15721 fps=448 q=-0.0 size=N/A time=00:10:55.69 bitrate=N/A speed=18.7x    frame=15961 fps=448 q=-0.0 size=N/A time=00:11:05.70 bitrate=N/A speed=18.7x    frame=16123 fps=446 q=-0.0 size=N/A time=00:11:12.46 bitrate=N/A speed=18.6x    frame=16288 fps=445 q=-0.0 size=N/A time=00:11:19.34 bitrate=N/A speed=18.5x    frame=16528 fps=445 q=-0.0 size=N/A time=00:11:29.35 bitrate=N/A speed=18.6x    frame=16726 fps=444 q=-0.0 size=N/A time=00:11:37.61 bitrate=N/A speed=18.5x    frame=16958 fps=444 q=-0.0 size=N/A time=00:11:47.28 bitrate=N/A speed=18.5x    frame=17213 fps=445 q=-0.0 size=N/A time=00:11:57.92 bitrate=N/A speed=18.6x    frame=17457 fps=445 q=-0.0 size=N/A time=00:12:08.10 bitrate=N/A speed=18.6x    frame=17719 fps=446 q=-0.0 size=N/A time=00:12:19.02 bitrate=N/A speed=18.6x    frame=17976 fps=447 q=-0.0 size=N/A time=00:12:29.74 bitrate=N/A speed=18.6x    frame=18248 fps=448 q=-0.0 size=N/A time=00:12:41.09 bitrate=N/A speed=18.7x    frame=18504 fps=448 q=-0.0 size=N/A time=00:12:51.77 bitrate=N/A speed=18.7x    frame=18713 fps=448 q=-0.0 size=N/A time=00:13:00.48 bitrate=N/A speed=18.7x    frame=18913 fps=447 q=-0.0 size=N/A time=00:13:08.82 bitrate=N/A speed=18.6x    frame=19091 fps=446 q=-0.0 size=N/A time=00:13:16.25 bitrate=N/A speed=18.6x    frame=19336 fps=446 q=-0.0 size=N/A time=00:13:26.47 bitrate=N/A speed=18.6x    frame=19611 fps=447 q=-0.0 size=N/A time=00:13:37.94 bitrate=N/A speed=18.7x    frame=19864 fps=448 q=-0.0 size=N/A time=00:13:48.49 bitrate=N/A speed=18.7x    frame=20130 fps=449 q=-0.0 size=N/A time=00:13:59.58 bitrate=N/A speed=18.7x    frame=20365 fps=449 q=-0.0 size=N/A time=00:14:09.39 bitrate=N/A speed=18.7x    frame=20584 fps=448 q=-0.0 size=N/A time=00:14:18.52 bitrate=N/A speed=18.7x    frame=20797 fps=448 q=-0.0 size=N/A time=00:14:27.40 bitrate=N/A speed=18.7x    frame=21029 fps=448 q=-0.0 size=N/A time=00:14:37.08 bitrate=N/A speed=18.7x    frame=21297 fps=449 q=-0.0 size=N/A time=00:14:48.26 bitrate=N/A speed=18.7x    frame=21554 fps=449 q=-0.0 size=N/A time=00:14:58.98 bitrate=N/A speed=18.7x    frame=21802 fps=450 q=-0.0 size=N/A time=00:15:09.32 bitrate=N/A speed=18.8x    frame=22085 fps=451 q=-0.0 size=N/A time=00:15:21.12 bitrate=N/A speed=18.8x    frame=22346 fps=451 q=-0.0 size=N/A time=00:15:32.01 bitrate=N/A speed=18.8x    frame=22587 fps=451 q=-0.0 size=N/A time=00:15:42.06 bitrate=N/A speed=18.8x    frame=22793 fps=451 q=-0.0 size=N/A time=00:15:50.65 bitrate=N/A speed=18.8x    frame=23004 fps=450 q=-0.0 size=N/A time=00:15:59.45 bitrate=N/A speed=18.8x    frame=23252 fps=451 q=-0.0 size=N/A time=00:16:09.80 bitrate=N/A speed=18.8x    frame=23534 fps=452 q=-0.0 size=N/A time=00:16:21.56 bitrate=N/A speed=18.8x    frame=23699 fps=450 q=-0.0 size=N/A time=00:16:28.44 bitrate=N/A speed=18.8x    frame=23904 fps=450 q=-0.0 size=N/A time=00:16:36.99 bitrate=N/A speed=18.8x    frame=24096 fps=449 q=-0.0 size=N/A time=00:16:45.00 bitrate=N/A speed=18.7x    frame=24301 fps=449 q=-0.0 size=N/A time=00:16:53.55 bitrate=N/A speed=18.7x    frame=24542 fps=449 q=-0.0 size=N/A time=00:17:03.60 bitrate=N/A speed=18.7x    frame=24773 fps=449 q=-0.0 size=N/A time=00:17:13.24 bitrate=N/A speed=18.7x    frame=24980 fps=448 q=-0.0 size=N/A time=00:17:21.87 bitrate=N/A speed=18.7x    frame=25216 fps=448 q=-0.0 size=N/A time=00:17:31.71 bitrate=N/A speed=18.7x    frame=25446 fps=449 q=-0.0 size=N/A time=00:17:41.31 bitrate=N/A speed=18.7x    frame=25682 fps=449 q=-0.0 size=N/A time=00:17:51.15 bitrate=N/A speed=18.7x    frame=25888 fps=448 q=-0.0 size=N/A time=00:17:59.74 bitrate=N/A speed=18.7x    frame=26106 fps=448 q=-0.0 size=N/A time=00:18:08.83 bitrate=N/A speed=18.7x    frame=26326 fps=448 q=-0.0 size=N/A time=00:18:18.01 bitrate=N/A speed=18.7x    frame=26551 fps=448 q=-0.0 size=N/A time=00:18:27.39 bitrate=N/A speed=18.7x    frame=26764 fps=447 q=-0.0 size=N/A time=00:18:36.32 bitrate=N/A speed=18.7x    frame=26978 fps=447 q=-0.0 size=N/A time=00:18:45.20 bitrate=N/A speed=18.6x    frame=27185 fps=447 q=-0.0 size=N/A time=00:18:53.84 bitrate=N/A speed=18.6x    frame=27393 fps=446 q=-0.0 size=N/A time=00:19:02.51 bitrate=N/A speed=18.6x    frame=27602 fps=446 q=-0.0 size=N/A time=00:19:11.23 bitrate=N/A speed=18.6x    frame=27861 fps=446 q=-0.0 size=N/A time=00:19:22.03 bitrate=N/A speed=18.6x    frame=28115 fps=447 q=-0.0 size=N/A time=00:19:32.62 bitrate=N/A speed=18.6x    frame=28355 fps=447 q=-0.0 size=N/A time=00:19:42.63 bitrate=N/A speed=18.6x    frame=28625 fps=448 q=-0.0 size=N/A time=00:19:53.90 bitrate=N/A speed=18.7x    frame=28898 fps=448 q=-0.0 size=N/A time=00:20:05.28 bitrate=N/A speed=18.7x    frame=29192 fps=449 q=-0.0 size=N/A time=00:20:17.54 bitrate=N/A speed=18.7x    frame=29461 fps=450 q=-0.0 size=N/A time=00:20:28.76 bitrate=N/A speed=18.8x    frame=29682 fps=450 q=-0.0 size=N/A time=00:20:37.98 bitrate=N/A speed=18.8x    frame=29875 fps=449 q=-0.0 size=N/A time=00:20:46.03 bitrate=N/A speed=18.7x    frame=30082 fps=449 q=-0.0 size=N/A time=00:20:54.67 bitrate=N/A speed=18.7x    frame=30310 fps=449 q=-0.0 size=N/A time=00:21:04.17 bitrate=N/A speed=18.7x    frame=30548 fps=449 q=-0.0 size=N/A time=00:21:14.10 bitrate=N/A speed=18.7x    frame=30729 fps=448 q=-0.0 size=N/A time=00:21:21.65 bitrate=N/A speed=18.7x    frame=30907 fps=447 q=-0.0 size=N/A time=00:21:29.07 bitrate=N/A speed=18.7x    frame=31083 fps=446 q=-0.0 size=N/A time=00:21:36.42 bitrate=N/A speed=18.6x    frame=31266 fps=446 q=-0.0 size=N/A time=00:21:44.05 bitrate=N/A speed=18.6x    frame=31475 fps=445 q=-0.0 size=N/A time=00:21:52.76 bitrate=N/A speed=18.6x    frame=31676 fps=445 q=-0.0 size=N/A time=00:22:01.15 bitrate=N/A speed=18.6x    frame=31897 fps=445 q=-0.0 size=N/A time=00:22:10.37 bitrate=N/A speed=18.6x    frame=32132 fps=445 q=-0.0 size=N/A time=00:22:20.17 bitrate=N/A speed=18.6x    frame=32310 fps=444 q=-0.0 size=N/A time=00:22:27.59 bitrate=N/A speed=18.5x    frame=32486 fps=444 q=-0.0 size=N/A time=00:22:34.93 bitrate=N/A speed=18.5x    frame=32648 fps=443 q=-0.0 size=N/A time=00:22:41.69 bitrate=N/A speed=18.5x    frame=32820 fps=442 q=-0.0 size=N/A time=00:22:48.86 bitrate=N/A speed=18.4x    frame=32985 fps=441 q=-0.0 size=N/A time=00:22:55.74 bitrate=N/A speed=18.4x    frame=33156 fps=440 q=-0.0 size=N/A time=00:23:02.88 bitrate=N/A speed=18.4x    frame=33324 fps=440 q=-0.0 size=N/A time=00:23:09.88 bitrate=N/A speed=18.3x    frame=33512 fps=439 q=-0.0 size=N/A time=00:23:17.72 bitrate=N/A speed=18.3x    frame=33688 fps=438 q=-0.0 size=N/A time=00:23:25.07 bitrate=N/A speed=18.3x    frame=33859 fps=438 q=-0.0 size=N/A time=00:23:32.20 bitrate=N/A speed=18.3x    frame=34031 fps=437 q=-0.0 size=N/A time=00:23:39.37 bitrate=N/A speed=18.2x    frame=34216 fps=436 q=-0.0 size=N/A time=00:23:47.09 bitrate=N/A speed=18.2x    frame=34421 fps=436 q=-0.0 size=N/A time=00:23:55.64 bitrate=N/A speed=18.2x    frame=34634 fps=436 q=-0.0 size=N/A time=00:24:04.52 bitrate=N/A speed=18.2x    [Parsed_psnr_10 @ 0000019042380340] PSNR y:48.341491 u:49.243836 v:48.034173 average:48.425009 min:37.449322 max:inf
[out#0/null @ 0000019037aae040] video:14919KiB audio:271544KiB subtitle:0KiB other streams:0KiB global headers:0KiB muxing overhead: unknown
frame=34720 fps=436 q=-0.0 Lsize=N/A time=00:24:08.11 bitrate=N/A speed=18.2x    
